<svg xmlns="http://www.w3.org/2000/svg" xmlns:xlink="http://www.w3.org/1999/xlink" width="1080" zoomAndPan="magnify" viewBox="0 0 810 809.999993" height="1080" preserveAspectRatio="xMidYMid meet" version="1.0"><defs><g/></defs><rect x="-81" width="972" fill="#ffffff" y="-80.999999" height="971.999992" fill-opacity="1"/><rect x="-81" width="972" fill="#ffffff" y="-80.999999" height="971.999992" fill-opacity="1"/><g fill="#ffffff" fill-opacity="1"><g transform="translate(81.011718, 434.385202)"><g><path d="M 39.1875 -1.328125 C 43.207031 -1.328125 46.765625 -2.410156 49.859375 -4.578125 C 52.953125 -6.753906 54.5 -10.03125 54.5 -14.40625 C 54.5 -18.789062 52.828125 -22.144531 49.484375 -24.46875 C 46.148438 -26.800781 41.410156 -28.832031 35.265625 -30.5625 C 29.117188 -32.289062 24.65625 -33.796875 21.875 -35.078125 C 19.101562 -36.367188 16.472656 -38.054688 13.984375 -40.140625 C 9.003906 -44.328125 6.515625 -50.800781 6.515625 -59.5625 C 6.515625 -66.707031 9.066406 -72.851562 14.171875 -78 C 19.273438 -83.144531 26.242188 -85.71875 35.078125 -85.71875 C 39.335938 -85.71875 43.78125 -85.09375 48.40625 -83.84375 C 53.03125 -82.601562 55.90625 -81.984375 57.03125 -81.984375 C 58.15625 -81.984375 59.160156 -82.785156 60.046875 -84.390625 L 61.359375 -84.390625 L 62.203125 -60.046875 L 60.28125 -60.046875 C 56.425781 -67.035156 52.382812 -72.640625 48.15625 -76.859375 C 43.9375 -81.078125 39.351562 -83.1875 34.40625 -83.1875 C 29.46875 -83.1875 25.632812 -82.039062 22.90625 -79.75 C 20.175781 -77.457031 18.8125 -74.398438 18.8125 -70.578125 C 18.8125 -66.765625 20.4375 -63.832031 23.6875 -61.78125 C 26.945312 -59.738281 30.945312 -58.070312 35.6875 -56.78125 C 40.425781 -55.5 43.539062 -54.613281 45.03125 -54.125 C 46.519531 -53.644531 48.367188 -52.984375 50.578125 -52.140625 C 52.785156 -51.296875 54.59375 -50.410156 56 -49.484375 C 57.40625 -48.566406 58.890625 -47.40625 60.453125 -46 C 62.023438 -44.59375 63.253906 -43.046875 64.140625 -41.359375 C 66.304688 -37.492188 67.390625 -32.910156 67.390625 -27.609375 C 67.390625 -18.929688 64.675781 -11.957031 59.25 -6.6875 C 53.832031 -1.425781 46.703125 1.203125 37.859375 1.203125 C 33.273438 1.203125 28.03125 0.601562 22.125 -0.59375 C 16.21875 -1.800781 12.941406 -2.40625 12.296875 -2.40625 C 11.171875 -2.40625 10.085938 -1.203125 9.046875 1.203125 L 7.359375 1.203125 L 6.15625 -27.484375 L 8.203125 -27.484375 C 11.734375 -20.492188 16.25 -14.382812 21.75 -9.15625 C 27.257812 -3.9375 33.070312 -1.328125 39.1875 -1.328125 Z M 39.1875 -1.328125 "/></g></g></g><g fill="#ffffff" fill-opacity="1"><g transform="translate(153.342197, 434.385202)"><g><path d="M 2.53125 -84.390625 L 40.140625 -84.390625 L 40.140625 -82.109375 L 33.15625 -82.109375 L 33.15625 -44.734375 L 57.140625 -44.734375 L 57.140625 -82.109375 L 50.03125 -82.109375 L 50.03125 -84.390625 L 87.765625 -84.390625 L 87.765625 -82.109375 L 80.65625 -82.109375 L 80.65625 -2.296875 L 87.765625 -2.296875 L 87.765625 0 L 50.03125 0 L 50.03125 -2.296875 L 57.140625 -2.296875 L 57.140625 -41.59375 L 33.15625 -41.59375 L 33.15625 -2.296875 L 40.140625 -2.296875 L 40.140625 0 L 2.53125 0 L 2.53125 -2.296875 L 9.640625 -2.296875 L 9.640625 -82.109375 L 2.53125 -82.109375 Z M 2.53125 -84.390625 "/></g></g></g><g fill="#ffffff" fill-opacity="1"><g transform="translate(243.634749, 434.385202)"><g><path d="M 52.078125 -2.296875 L 43.28125 -28.328125 L 19.40625 -28.328125 L 10.125 -2.296875 L 19.171875 -2.296875 L 19.171875 0 L 0.71875 0 L 0.71875 -2.296875 L 6.390625 -2.296875 L 37.140625 -85.109375 L 47.015625 -85.109375 L 77.40625 -2.296875 L 82.953125 -2.296875 L 82.953125 0 L 43.515625 0 L 43.515625 -2.296875 Z M 31.828125 -62.578125 L 20.5 -30.984375 L 42.3125 -30.984375 Z M 31.828125 -62.578125 "/></g></g></g><g fill="#ffffff" fill-opacity="1"><g transform="translate(327.297007, 434.385202)"><g><path d="M 39.546875 -42.671875 L 33.15625 -42.671875 L 33.15625 -2.296875 L 40.984375 -2.296875 L 40.984375 0 L 1.8125 0 L 1.8125 -2.296875 L 9.640625 -2.296875 L 9.640625 -82.109375 L 1.8125 -82.109375 L 1.8125 -84.390625 L 38.21875 -84.390625 C 48.664062 -84.390625 56.078125 -83.847656 60.453125 -82.765625 C 64.835938 -81.679688 67.914062 -80.375 69.6875 -78.84375 C 73.539062 -75.707031 75.46875 -70.722656 75.46875 -63.890625 C 75.46875 -57.066406 73.78125 -52.1875 70.40625 -49.25 C 67.03125 -46.3125 61.882812 -44.5625 54.96875 -44 L 54.96875 -43.640625 C 61.476562 -42.753906 66.019531 -40.820312 68.59375 -37.84375 C 71.164062 -34.875 72.453125 -29.894531 72.453125 -22.90625 L 72.453125 -16.515625 C 72.453125 -12.335938 72.671875 -9.523438 73.109375 -8.078125 C 73.554688 -6.628906 74.503906 -5.90625 75.953125 -5.90625 C 77.398438 -5.90625 78.546875 -6.566406 79.390625 -7.890625 C 80.234375 -9.222656 81.015625 -12.019531 81.734375 -16.28125 L 83.796875 -16.03125 C 82.910156 -9.195312 81.359375 -4.613281 79.140625 -2.28125 C 76.929688 0.0390625 72.53125 1.203125 65.9375 1.203125 C 59.351562 1.203125 54.675781 -0.34375 51.90625 -3.4375 C 49.132812 -6.53125 47.75 -12.335938 47.75 -20.859375 L 47.75 -29.65625 C 47.75 -34.15625 47.164062 -37.445312 46 -39.53125 C 44.832031 -41.625 42.679688 -42.671875 39.546875 -42.671875 Z M 33.15625 -82.109375 L 33.15625 -44.96875 L 37.015625 -44.96875 C 41.597656 -44.96875 44.992188 -46.375 47.203125 -49.1875 C 49.410156 -52 50.515625 -56.582031 50.515625 -62.9375 L 50.515625 -66.4375 C 50.515625 -72.78125 49.445312 -76.976562 47.3125 -79.03125 C 45.1875 -81.082031 41.796875 -82.109375 37.140625 -82.109375 Z M 33.15625 -82.109375 "/></g></g></g><g fill="#ffffff" fill-opacity="1"><g transform="translate(413.611387, 434.385202)"><g><path d="M 1.8125 -84.390625 L 37.25 -84.390625 C 49.382812 -84.390625 58.425781 -82.640625 64.375 -79.140625 C 70.320312 -75.648438 73.296875 -69.40625 73.296875 -60.40625 C 73.296875 -50.4375 69.679688 -43.5625 62.453125 -39.78125 C 55.703125 -36.320312 46.257812 -34.59375 34.125 -34.59375 L 33.15625 -34.59375 L 33.15625 -2.296875 L 48.21875 -2.296875 L 48.21875 0 L 1.8125 0 L 1.8125 -2.296875 L 9.640625 -2.296875 L 9.640625 -82.109375 L 1.8125 -82.109375 Z M 33.15625 -82.109375 L 33.15625 -36.890625 L 35.6875 -36.890625 C 40.507812 -36.890625 43.84375 -38.535156 45.6875 -41.828125 C 47.539062 -45.128906 48.46875 -50.476562 48.46875 -57.875 L 48.46875 -63.65625 C 48.46875 -70.488281 47.601562 -75.269531 45.875 -78 C 44.144531 -80.738281 40.988281 -82.109375 36.40625 -82.109375 Z M 33.15625 -82.109375 "/></g></g></g><g fill="#ff6f00" fill-opacity="1"><g transform="translate(490.042951, 434.385202)"><g><path d="M 51.125 -24.359375 L 61.125 -59.078125 L 53.890625 -82.109375 L 47.015625 -82.109375 L 47.015625 -84.390625 L 84.390625 -84.390625 L 84.390625 -82.109375 L 77.28125 -82.109375 L 95.25 -25.078125 L 109.71875 -82.109375 L 97.53125 -82.109375 L 97.53125 -84.390625 L 121.640625 -84.390625 L 121.640625 -82.109375 L 113.6875 -82.109375 L 91.5 1.203125 L 80.78125 1.203125 L 62.9375 -53.28125 L 47.265625 1.203125 L 36.765625 1.203125 L 6.390625 -82.109375 L 0.71875 -82.109375 L 0.71875 -84.390625 L 39.90625 -84.390625 L 39.90625 -82.109375 L 31.46875 -82.109375 Z M 51.125 -24.359375 "/></g></g></g><g fill="#ff6f00" fill-opacity="1"><g transform="translate(612.402019, 434.385202)"><g><path d="M 3.015625 -84.390625 L 39.78125 -84.390625 L 39.78125 -82.109375 L 33.15625 -82.109375 L 33.15625 -2.296875 L 39.78125 -2.296875 L 39.78125 0 L 3.015625 0 L 3.015625 -2.296875 L 9.640625 -2.296875 L 9.640625 -82.109375 L 3.015625 -82.109375 Z M 3.015625 -84.390625 "/></g></g></g><g fill="#ff6f00" fill-opacity="1"><g transform="translate(655.197553, 434.385202)"><g><path d="M 67.390625 -84.390625 L 67.390625 -81.734375 L 31.703125 -2.765625 L 35.8125 -2.765625 C 43.039062 -2.765625 49.40625 -5.078125 54.90625 -9.703125 C 60.414062 -14.328125 64.378906 -20.898438 66.796875 -29.421875 L 68.96875 -29.421875 L 67.515625 0 L 5.78125 0 L 5.78125 -2.296875 L 41.828125 -81.734375 L 36.890625 -81.734375 C 29.734375 -81.734375 24.304688 -80.164062 20.609375 -77.03125 C 16.921875 -73.90625 12.742188 -67.476562 8.078125 -57.75 L 5.90625 -57.75 L 7.71875 -84.390625 Z M 67.390625 -84.390625 "/></g></g></g><g fill="#ffffff" fill-opacity="1"><g transform="translate(121.812419, 487.953931)"><g><path d="M 9.515625 -8.890625 L 12.921875 -16.390625 L 10.5 -16.390625 L 10.5 -16.78125 L 15.21875 -16.78125 L 15.21875 -16.390625 L 13.640625 -16.390625 L 10.015625 -8.390625 L 10.015625 -0.453125 L 11.484375 -0.453125 L 11.484375 0 L 3.890625 0 L 3.890625 -0.453125 L 5.34375 -0.453125 L 5.34375 -7.9375 L 1.265625 -16.390625 L 0.140625 -16.390625 L 0.140625 -16.78125 L 7.8125 -16.78125 L 7.8125 -16.390625 L 6.25 -16.390625 Z M 9.515625 -8.890625 "/></g></g></g><g fill="#ffffff" fill-opacity="1"><g transform="translate(143.167774, 487.953931)"><g><path d="M 12.015625 -7.40625 L 12.015625 -9.1875 C 12.015625 -12.101562 11.867188 -13.945312 11.578125 -14.71875 C 11.253906 -15.59375 10.796875 -16.132812 10.203125 -16.34375 C 9.867188 -16.46875 9.460938 -16.53125 8.984375 -16.53125 C 8.503906 -16.53125 8.09375 -16.46875 7.75 -16.34375 C 7.40625 -16.21875 7.117188 -15.992188 6.890625 -15.671875 C 6.671875 -15.359375 6.492188 -15.023438 6.359375 -14.671875 C 6.222656 -14.316406 6.117188 -13.820312 6.046875 -13.1875 C 5.941406 -12.257812 5.890625 -10.890625 5.890625 -9.078125 L 5.890625 -7.359375 C 5.890625 -5.410156 5.96875 -4.023438 6.125 -3.203125 C 6.28125 -2.378906 6.46875 -1.789062 6.6875 -1.4375 C 7.1875 -0.65625 7.953125 -0.265625 8.984375 -0.265625 C 10.242188 -0.265625 11.0625 -0.796875 11.4375 -1.859375 C 11.820312 -2.921875 12.015625 -4.769531 12.015625 -7.40625 Z M 8.9375 0.234375 C 6.269531 0.234375 4.273438 -0.484375 2.953125 -1.921875 C 1.640625 -3.367188 0.984375 -5.460938 0.984375 -8.203125 C 0.984375 -10.941406 1.6875 -13.097656 3.09375 -14.671875 C 4.507812 -16.253906 6.507812 -17.046875 9.09375 -17.046875 C 11.6875 -17.046875 13.644531 -16.296875 14.96875 -14.796875 C 16.289062 -13.304688 16.953125 -11.1875 16.953125 -8.4375 C 16.953125 -5.6875 16.28125 -3.550781 14.9375 -2.03125 C 13.601562 -0.519531 11.601562 0.234375 8.9375 0.234375 Z M 8.9375 0.234375 "/></g></g></g><g fill="#ffffff" fill-opacity="1"><g transform="translate(167.087361, 487.953931)"><g><path d="M 6.5 -5.109375 C 6.5 -3.640625 6.75 -2.507812 7.25 -1.71875 C 7.75 -0.9375 8.65625 -0.546875 9.96875 -0.546875 C 11.28125 -0.546875 12.285156 -0.953125 12.984375 -1.765625 C 13.691406 -2.585938 14.046875 -3.828125 14.046875 -5.484375 L 14.046875 -16.328125 L 12.484375 -16.328125 L 12.484375 -16.78125 L 15.984375 -16.78125 L 15.984375 -16.328125 L 14.671875 -16.328125 L 14.671875 -5.65625 C 14.671875 -3.675781 14.226562 -2.195312 13.34375 -1.21875 C 12.46875 -0.25 10.914062 0.234375 8.6875 0.234375 C 6.457031 0.234375 4.753906 -0.226562 3.578125 -1.15625 C 2.410156 -2.082031 1.828125 -3.671875 1.828125 -5.921875 L 1.828125 -16.328125 L 0.5 -16.328125 L 0.5 -16.78125 L 8.046875 -16.78125 L 8.046875 -16.328125 L 6.5 -16.328125 Z M 6.5 -5.109375 "/></g></g></g><g fill="#ffffff" fill-opacity="1"><g transform="translate(189.449236, 487.953931)"><g><path d="M 7.859375 -8.484375 L 6.59375 -8.484375 L 6.59375 -0.453125 L 8.15625 -0.453125 L 8.15625 0 L 0.359375 0 L 0.359375 -0.453125 L 1.921875 -0.453125 L 1.921875 -16.328125 L 0.359375 -16.328125 L 0.359375 -16.78125 L 7.59375 -16.78125 C 9.675781 -16.78125 11.148438 -16.671875 12.015625 -16.453125 C 12.890625 -16.234375 13.503906 -15.972656 13.859375 -15.671875 C 14.617188 -15.046875 15 -14.054688 15 -12.703125 C 15 -11.347656 14.660156 -10.378906 13.984375 -9.796875 C 13.316406 -9.210938 12.300781 -8.863281 10.9375 -8.75 L 10.9375 -8.671875 C 12.226562 -8.492188 13.128906 -8.109375 13.640625 -7.515625 C 14.148438 -6.929688 14.40625 -5.941406 14.40625 -4.546875 L 14.40625 -3.28125 C 14.40625 -2.445312 14.445312 -1.882812 14.53125 -1.59375 C 14.625 -1.3125 14.8125 -1.171875 15.09375 -1.171875 C 15.382812 -1.171875 15.613281 -1.300781 15.78125 -1.5625 C 15.945312 -1.832031 16.101562 -2.390625 16.25 -3.234375 L 16.65625 -3.1875 C 16.476562 -1.832031 16.171875 -0.921875 15.734375 -0.453125 C 15.296875 0.00390625 14.421875 0.234375 13.109375 0.234375 C 11.796875 0.234375 10.863281 -0.0703125 10.3125 -0.6875 C 9.757812 -1.300781 9.484375 -2.453125 9.484375 -4.140625 L 9.484375 -5.890625 C 9.484375 -6.785156 9.367188 -7.441406 9.140625 -7.859375 C 8.910156 -8.273438 8.484375 -8.484375 7.859375 -8.484375 Z M 6.59375 -16.328125 L 6.59375 -8.9375 L 7.359375 -8.9375 C 8.265625 -8.9375 8.9375 -9.21875 9.375 -9.78125 C 9.820312 -10.34375 10.046875 -11.253906 10.046875 -12.515625 L 10.046875 -13.203125 C 10.046875 -14.460938 9.832031 -15.296875 9.40625 -15.703125 C 8.976562 -16.117188 8.300781 -16.328125 7.375 -16.328125 Z M 6.59375 -16.328125 "/></g></g></g><g fill="#ffffff" fill-opacity="1"><g transform="translate(212.601954, 487.953931)"><g/></g></g><g fill="#ffffff" fill-opacity="1"><g transform="translate(222.909521, 487.953931)"><g><path d="M 0.359375 -16.78125 L 7.40625 -16.78125 C 9.820312 -16.78125 11.617188 -16.429688 12.796875 -15.734375 C 13.984375 -15.035156 14.578125 -13.796875 14.578125 -12.015625 C 14.578125 -10.023438 13.859375 -8.65625 12.421875 -7.90625 C 11.078125 -7.21875 9.195312 -6.875 6.78125 -6.875 L 6.59375 -6.875 L 6.59375 -0.453125 L 9.59375 -0.453125 L 9.59375 0 L 0.359375 0 L 0.359375 -0.453125 L 1.921875 -0.453125 L 1.921875 -16.328125 L 0.359375 -16.328125 Z M 6.59375 -16.328125 L 6.59375 -7.328125 L 7.09375 -7.328125 C 8.050781 -7.328125 8.710938 -7.65625 9.078125 -8.3125 C 9.453125 -8.96875 9.640625 -10.03125 9.640625 -11.5 L 9.640625 -12.65625 C 9.640625 -14.007812 9.46875 -14.957031 9.125 -15.5 C 8.78125 -16.050781 8.148438 -16.328125 7.234375 -16.328125 Z M 6.59375 -16.328125 "/></g></g></g><g fill="#ffffff" fill-opacity="1"><g transform="translate(244.097135, 487.953931)"><g><path d="M 10.359375 -0.453125 L 8.609375 -5.625 L 3.859375 -5.625 L 2.015625 -0.453125 L 3.8125 -0.453125 L 3.8125 0 L 0.140625 0 L 0.140625 -0.453125 L 1.265625 -0.453125 L 7.375 -16.921875 L 9.34375 -16.921875 L 15.390625 -0.453125 L 16.484375 -0.453125 L 16.484375 0 L 8.65625 0 L 8.65625 -0.453125 Z M 6.328125 -12.4375 L 4.078125 -6.15625 L 8.40625 -6.15625 Z M 6.328125 -12.4375 "/></g></g></g><g fill="#ffffff" fill-opacity="1"><g transform="translate(266.72263, 487.953931)"><g><path d="M 7.859375 -8.484375 L 6.59375 -8.484375 L 6.59375 -0.453125 L 8.15625 -0.453125 L 8.15625 0 L 0.359375 0 L 0.359375 -0.453125 L 1.921875 -0.453125 L 1.921875 -16.328125 L 0.359375 -16.328125 L 0.359375 -16.78125 L 7.59375 -16.78125 C 9.675781 -16.78125 11.148438 -16.671875 12.015625 -16.453125 C 12.890625 -16.234375 13.503906 -15.972656 13.859375 -15.671875 C 14.617188 -15.046875 15 -14.054688 15 -12.703125 C 15 -11.347656 14.660156 -10.378906 13.984375 -9.796875 C 13.316406 -9.210938 12.300781 -8.863281 10.9375 -8.75 L 10.9375 -8.671875 C 12.226562 -8.492188 13.128906 -8.109375 13.640625 -7.515625 C 14.148438 -6.929688 14.40625 -5.941406 14.40625 -4.546875 L 14.40625 -3.28125 C 14.40625 -2.445312 14.445312 -1.882812 14.53125 -1.59375 C 14.625 -1.3125 14.8125 -1.171875 15.09375 -1.171875 C 15.382812 -1.171875 15.613281 -1.300781 15.78125 -1.5625 C 15.945312 -1.832031 16.101562 -2.390625 16.25 -3.234375 L 16.65625 -3.1875 C 16.476562 -1.832031 16.171875 -0.921875 15.734375 -0.453125 C 15.296875 0.00390625 14.421875 0.234375 13.109375 0.234375 C 11.796875 0.234375 10.863281 -0.0703125 10.3125 -0.6875 C 9.757812 -1.300781 9.484375 -2.453125 9.484375 -4.140625 L 9.484375 -5.890625 C 9.484375 -6.785156 9.367188 -7.441406 9.140625 -7.859375 C 8.910156 -8.273438 8.484375 -8.484375 7.859375 -8.484375 Z M 6.59375 -16.328125 L 6.59375 -8.9375 L 7.359375 -8.9375 C 8.265625 -8.9375 8.9375 -9.21875 9.375 -9.78125 C 9.820312 -10.34375 10.046875 -11.253906 10.046875 -12.515625 L 10.046875 -13.203125 C 10.046875 -14.460938 9.832031 -15.296875 9.40625 -15.703125 C 8.976562 -16.117188 8.300781 -16.328125 7.375 -16.328125 Z M 6.59375 -16.328125 "/></g></g></g><g fill="#ffffff" fill-opacity="1"><g transform="translate(289.875354, 487.953931)"><g><path d="M 15.25 -16.78125 L 15.484375 -10.765625 L 15.03125 -10.765625 C 14.320312 -12.890625 13.695312 -14.335938 13.15625 -15.109375 C 12.613281 -15.890625 11.832031 -16.28125 10.8125 -16.28125 L 10.515625 -16.28125 L 10.515625 -0.5 L 12.5625 -0.5 L 12.5625 0 L 3.8125 0 L 3.8125 -0.5 L 5.84375 -0.5 L 5.84375 -16.28125 L 5.53125 -16.28125 C 4.507812 -16.28125 3.71875 -15.875 3.15625 -15.0625 C 2.601562 -14.257812 1.988281 -12.828125 1.3125 -10.765625 L 0.859375 -10.765625 L 1.109375 -16.78125 Z M 15.25 -16.78125 "/></g></g></g><g fill="#ffffff" fill-opacity="1"><g transform="translate(312.237222, 487.953931)"><g><path d="M 14.140625 -16.328125 L 14.140625 0 L 10.78125 0 L 2.5625 -15.5 L 2.5625 -0.453125 L 3.890625 -0.453125 L 3.890625 0 L 0.59375 0 L 0.59375 -0.453125 L 1.921875 -0.453125 L 1.921875 -16.328125 L 0.59375 -16.328125 L 0.59375 -16.78125 L 7.21875 -16.78125 L 13.5 -4.75 L 13.5 -16.328125 L 12.171875 -16.328125 L 12.171875 -16.78125 L 15.453125 -16.78125 L 15.453125 -16.328125 Z M 14.140625 -16.328125 "/></g></g></g><g fill="#ffffff" fill-opacity="1"><g transform="translate(334.28756, 487.953931)"><g><path d="M 0.5 -16.78125 L 12.96875 -16.78125 L 13.203125 -12.03125 L 12.78125 -12.03125 C 12.101562 -13.644531 11.394531 -14.75 10.65625 -15.34375 C 9.925781 -15.945312 8.851562 -16.25 7.4375 -16.25 L 6.59375 -16.25 L 6.59375 -8.84375 L 7.40625 -8.84375 C 8.15625 -8.84375 8.785156 -9.125 9.296875 -9.6875 C 9.804688 -10.257812 10.164062 -11.023438 10.375 -11.984375 L 10.734375 -11.984375 L 10.734375 -4.890625 L 10.328125 -4.890625 C 10.046875 -6.085938 9.660156 -6.941406 9.171875 -7.453125 C 8.679688 -7.960938 8.015625 -8.21875 7.171875 -8.21875 L 6.59375 -8.21875 L 6.59375 -0.53125 L 7.5 -0.53125 C 8.96875 -0.53125 10.21875 -0.96875 11.25 -1.84375 C 12.28125 -2.71875 12.988281 -3.84375 13.375 -5.21875 L 13.859375 -5.21875 L 13.65625 0 L 0.5 0 L 0.5 -0.53125 L 1.921875 -0.53125 L 1.921875 -16.25 L 0.5 -16.25 Z M 0.5 -16.78125 "/></g></g></g><g fill="#ffffff" fill-opacity="1"><g transform="translate(355.235511, 487.953931)"><g><path d="M 7.859375 -8.484375 L 6.59375 -8.484375 L 6.59375 -0.453125 L 8.15625 -0.453125 L 8.15625 0 L 0.359375 0 L 0.359375 -0.453125 L 1.921875 -0.453125 L 1.921875 -16.328125 L 0.359375 -16.328125 L 0.359375 -16.78125 L 7.59375 -16.78125 C 9.675781 -16.78125 11.148438 -16.671875 12.015625 -16.453125 C 12.890625 -16.234375 13.503906 -15.972656 13.859375 -15.671875 C 14.617188 -15.046875 15 -14.054688 15 -12.703125 C 15 -11.347656 14.660156 -10.378906 13.984375 -9.796875 C 13.316406 -9.210938 12.300781 -8.863281 10.9375 -8.75 L 10.9375 -8.671875 C 12.226562 -8.492188 13.128906 -8.109375 13.640625 -7.515625 C 14.148438 -6.929688 14.40625 -5.941406 14.40625 -4.546875 L 14.40625 -3.28125 C 14.40625 -2.445312 14.445312 -1.882812 14.53125 -1.59375 C 14.625 -1.3125 14.8125 -1.171875 15.09375 -1.171875 C 15.382812 -1.171875 15.613281 -1.300781 15.78125 -1.5625 C 15.945312 -1.832031 16.101562 -2.390625 16.25 -3.234375 L 16.65625 -3.1875 C 16.476562 -1.832031 16.171875 -0.921875 15.734375 -0.453125 C 15.296875 0.00390625 14.421875 0.234375 13.109375 0.234375 C 11.796875 0.234375 10.863281 -0.0703125 10.3125 -0.6875 C 9.757812 -1.300781 9.484375 -2.453125 9.484375 -4.140625 L 9.484375 -5.890625 C 9.484375 -6.785156 9.367188 -7.441406 9.140625 -7.859375 C 8.910156 -8.273438 8.484375 -8.484375 7.859375 -8.484375 Z M 6.59375 -16.328125 L 6.59375 -8.9375 L 7.359375 -8.9375 C 8.265625 -8.9375 8.9375 -9.21875 9.375 -9.78125 C 9.820312 -10.34375 10.046875 -11.253906 10.046875 -12.515625 L 10.046875 -13.203125 C 10.046875 -14.460938 9.832031 -15.296875 9.40625 -15.703125 C 8.976562 -16.117188 8.300781 -16.328125 7.375 -16.328125 Z M 6.59375 -16.328125 "/></g></g></g><g fill="#ffffff" fill-opacity="1"><g transform="translate(378.388235, 487.953931)"><g/></g></g><g fill="#ffffff" fill-opacity="1"><g transform="translate(388.695813, 487.953931)"><g><path d="M 0.5 -16.78125 L 12.96875 -16.78125 L 13.203125 -11.796875 L 12.78125 -11.796875 C 12.1875 -13.515625 11.5 -14.6875 10.71875 -15.3125 C 9.945312 -15.9375 8.796875 -16.25 7.265625 -16.25 L 6.59375 -16.25 L 6.59375 -8.46875 L 7.671875 -8.46875 C 8.441406 -8.46875 9.082031 -8.742188 9.59375 -9.296875 C 10.101562 -9.859375 10.453125 -10.625 10.640625 -11.59375 L 11 -11.59375 L 11 -4.5 L 10.59375 -4.5 C 10.332031 -5.695312 9.972656 -6.550781 9.515625 -7.0625 C 9.066406 -7.582031 8.453125 -7.84375 7.671875 -7.84375 L 6.59375 -7.84375 L 6.59375 -0.53125 L 9.5625 -0.53125 L 9.5625 0 L 0.5 0 L 0.5 -0.53125 L 1.921875 -0.53125 L 1.921875 -16.25 L 0.5 -16.25 Z M 0.5 -16.78125 "/></g></g></g><g fill="#ffffff" fill-opacity="1"><g transform="translate(408.876896, 487.953931)"><g><path d="M 12.015625 -7.40625 L 12.015625 -9.1875 C 12.015625 -12.101562 11.867188 -13.945312 11.578125 -14.71875 C 11.253906 -15.59375 10.796875 -16.132812 10.203125 -16.34375 C 9.867188 -16.46875 9.460938 -16.53125 8.984375 -16.53125 C 8.503906 -16.53125 8.09375 -16.46875 7.75 -16.34375 C 7.40625 -16.21875 7.117188 -15.992188 6.890625 -15.671875 C 6.671875 -15.359375 6.492188 -15.023438 6.359375 -14.671875 C 6.222656 -14.316406 6.117188 -13.820312 6.046875 -13.1875 C 5.941406 -12.257812 5.890625 -10.890625 5.890625 -9.078125 L 5.890625 -7.359375 C 5.890625 -5.410156 5.96875 -4.023438 6.125 -3.203125 C 6.28125 -2.378906 6.46875 -1.789062 6.6875 -1.4375 C 7.1875 -0.65625 7.953125 -0.265625 8.984375 -0.265625 C 10.242188 -0.265625 11.0625 -0.796875 11.4375 -1.859375 C 11.820312 -2.921875 12.015625 -4.769531 12.015625 -7.40625 Z M 8.9375 0.234375 C 6.269531 0.234375 4.273438 -0.484375 2.953125 -1.921875 C 1.640625 -3.367188 0.984375 -5.460938 0.984375 -8.203125 C 0.984375 -10.941406 1.6875 -13.097656 3.09375 -14.671875 C 4.507812 -16.253906 6.507812 -17.046875 9.09375 -17.046875 C 11.6875 -17.046875 13.644531 -16.296875 14.96875 -14.796875 C 16.289062 -13.304688 16.953125 -11.1875 16.953125 -8.4375 C 16.953125 -5.6875 16.28125 -3.550781 14.9375 -2.03125 C 13.601562 -0.519531 11.601562 0.234375 8.9375 0.234375 Z M 8.9375 0.234375 "/></g></g></g><g fill="#ffffff" fill-opacity="1"><g transform="translate(432.796489, 487.953931)"><g><path d="M 7.859375 -8.484375 L 6.59375 -8.484375 L 6.59375 -0.453125 L 8.15625 -0.453125 L 8.15625 0 L 0.359375 0 L 0.359375 -0.453125 L 1.921875 -0.453125 L 1.921875 -16.328125 L 0.359375 -16.328125 L 0.359375 -16.78125 L 7.59375 -16.78125 C 9.675781 -16.78125 11.148438 -16.671875 12.015625 -16.453125 C 12.890625 -16.234375 13.503906 -15.972656 13.859375 -15.671875 C 14.617188 -15.046875 15 -14.054688 15 -12.703125 C 15 -11.347656 14.660156 -10.378906 13.984375 -9.796875 C 13.316406 -9.210938 12.300781 -8.863281 10.9375 -8.75 L 10.9375 -8.671875 C 12.226562 -8.492188 13.128906 -8.109375 13.640625 -7.515625 C 14.148438 -6.929688 14.40625 -5.941406 14.40625 -4.546875 L 14.40625 -3.28125 C 14.40625 -2.445312 14.445312 -1.882812 14.53125 -1.59375 C 14.625 -1.3125 14.8125 -1.171875 15.09375 -1.171875 C 15.382812 -1.171875 15.613281 -1.300781 15.78125 -1.5625 C 15.945312 -1.832031 16.101562 -2.390625 16.25 -3.234375 L 16.65625 -3.1875 C 16.476562 -1.832031 16.171875 -0.921875 15.734375 -0.453125 C 15.296875 0.00390625 14.421875 0.234375 13.109375 0.234375 C 11.796875 0.234375 10.863281 -0.0703125 10.3125 -0.6875 C 9.757812 -1.300781 9.484375 -2.453125 9.484375 -4.140625 L 9.484375 -5.890625 C 9.484375 -6.785156 9.367188 -7.441406 9.140625 -7.859375 C 8.910156 -8.273438 8.484375 -8.484375 7.859375 -8.484375 Z M 6.59375 -16.328125 L 6.59375 -8.9375 L 7.359375 -8.9375 C 8.265625 -8.9375 8.9375 -9.21875 9.375 -9.78125 C 9.820312 -10.34375 10.046875 -11.253906 10.046875 -12.515625 L 10.046875 -13.203125 C 10.046875 -14.460938 9.832031 -15.296875 9.40625 -15.703125 C 8.976562 -16.117188 8.300781 -16.328125 7.375 -16.328125 Z M 6.59375 -16.328125 "/></g></g></g><g fill="#ffffff" fill-opacity="1"><g transform="translate(455.949213, 487.953931)"><g/></g></g><g fill="#ffffff" fill-opacity="1"><g transform="translate(466.256792, 487.953931)"><g><path d="M 15.25 -16.78125 L 15.484375 -10.765625 L 15.03125 -10.765625 C 14.320312 -12.890625 13.695312 -14.335938 13.15625 -15.109375 C 12.613281 -15.890625 11.832031 -16.28125 10.8125 -16.28125 L 10.515625 -16.28125 L 10.515625 -0.5 L 12.5625 -0.5 L 12.5625 0 L 3.8125 0 L 3.8125 -0.5 L 5.84375 -0.5 L 5.84375 -16.28125 L 5.53125 -16.28125 C 4.507812 -16.28125 3.71875 -15.875 3.15625 -15.0625 C 2.601562 -14.257812 1.988281 -12.828125 1.3125 -10.765625 L 0.859375 -10.765625 L 1.109375 -16.78125 Z M 15.25 -16.78125 "/></g></g></g><g fill="#ffffff" fill-opacity="1"><g transform="translate(488.61866, 487.953931)"><g><path d="M 0.5 -16.78125 L 7.984375 -16.78125 L 7.984375 -16.328125 L 6.59375 -16.328125 L 6.59375 -8.890625 L 11.359375 -8.890625 L 11.359375 -16.328125 L 9.953125 -16.328125 L 9.953125 -16.78125 L 17.453125 -16.78125 L 17.453125 -16.328125 L 16.03125 -16.328125 L 16.03125 -0.453125 L 17.453125 -0.453125 L 17.453125 0 L 9.953125 0 L 9.953125 -0.453125 L 11.359375 -0.453125 L 11.359375 -8.265625 L 6.59375 -8.265625 L 6.59375 -0.453125 L 7.984375 -0.453125 L 7.984375 0 L 0.5 0 L 0.5 -0.453125 L 1.921875 -0.453125 L 1.921875 -16.328125 L 0.5 -16.328125 Z M 0.5 -16.78125 "/></g></g></g><g fill="#ffffff" fill-opacity="1"><g transform="translate(512.562217, 487.953931)"><g><path d="M 0.5 -16.78125 L 12.96875 -16.78125 L 13.203125 -12.03125 L 12.78125 -12.03125 C 12.101562 -13.644531 11.394531 -14.75 10.65625 -15.34375 C 9.925781 -15.945312 8.851562 -16.25 7.4375 -16.25 L 6.59375 -16.25 L 6.59375 -8.84375 L 7.40625 -8.84375 C 8.15625 -8.84375 8.785156 -9.125 9.296875 -9.6875 C 9.804688 -10.257812 10.164062 -11.023438 10.375 -11.984375 L 10.734375 -11.984375 L 10.734375 -4.890625 L 10.328125 -4.890625 C 10.046875 -6.085938 9.660156 -6.941406 9.171875 -7.453125 C 8.679688 -7.960938 8.015625 -8.21875 7.171875 -8.21875 L 6.59375 -8.21875 L 6.59375 -0.53125 L 7.5 -0.53125 C 8.96875 -0.53125 10.21875 -0.96875 11.25 -1.84375 C 12.28125 -2.71875 12.988281 -3.84375 13.375 -5.21875 L 13.859375 -5.21875 L 13.65625 0 L 0.5 0 L 0.5 -0.53125 L 1.921875 -0.53125 L 1.921875 -16.25 L 0.5 -16.25 Z M 0.5 -16.78125 "/></g></g></g><g fill="#ffffff" fill-opacity="1"><g transform="translate(533.510168, 487.953931)"><g/></g></g><g fill="#ffffff" fill-opacity="1"><g transform="translate(543.817724, 487.953931)"><g><path d="M 14.140625 -16.328125 L 14.140625 0 L 10.78125 0 L 2.5625 -15.5 L 2.5625 -0.453125 L 3.890625 -0.453125 L 3.890625 0 L 0.59375 0 L 0.59375 -0.453125 L 1.921875 -0.453125 L 1.921875 -16.328125 L 0.59375 -16.328125 L 0.59375 -16.78125 L 7.21875 -16.78125 L 13.5 -4.75 L 13.5 -16.328125 L 12.171875 -16.328125 L 12.171875 -16.78125 L 15.453125 -16.78125 L 15.453125 -16.328125 Z M 14.140625 -16.328125 "/></g></g></g><g fill="#ffffff" fill-opacity="1"><g transform="translate(565.868061, 487.953931)"><g><path d="M 0.5 -16.78125 L 12.96875 -16.78125 L 13.203125 -12.03125 L 12.78125 -12.03125 C 12.101562 -13.644531 11.394531 -14.75 10.65625 -15.34375 C 9.925781 -15.945312 8.851562 -16.25 7.4375 -16.25 L 6.59375 -16.25 L 6.59375 -8.84375 L 7.40625 -8.84375 C 8.15625 -8.84375 8.785156 -9.125 9.296875 -9.6875 C 9.804688 -10.257812 10.164062 -11.023438 10.375 -11.984375 L 10.734375 -11.984375 L 10.734375 -4.890625 L 10.328125 -4.890625 C 10.046875 -6.085938 9.660156 -6.941406 9.171875 -7.453125 C 8.679688 -7.960938 8.015625 -8.21875 7.171875 -8.21875 L 6.59375 -8.21875 L 6.59375 -0.53125 L 7.5 -0.53125 C 8.96875 -0.53125 10.21875 -0.96875 11.25 -1.84375 C 12.28125 -2.71875 12.988281 -3.84375 13.375 -5.21875 L 13.859375 -5.21875 L 13.65625 0 L 0.5 0 L 0.5 -0.53125 L 1.921875 -0.53125 L 1.921875 -16.25 L 0.5 -16.25 Z M 0.5 -16.78125 "/></g></g></g><g fill="#ffffff" fill-opacity="1"><g transform="translate(586.816013, 487.953931)"><g><path d="M 10.15625 -4.84375 L 12.15625 -11.75 L 10.71875 -16.328125 L 9.34375 -16.328125 L 9.34375 -16.78125 L 16.78125 -16.78125 L 16.78125 -16.328125 L 15.359375 -16.328125 L 18.9375 -4.984375 L 21.8125 -16.328125 L 19.390625 -16.328125 L 19.390625 -16.78125 L 24.1875 -16.78125 L 24.1875 -16.328125 L 22.609375 -16.328125 L 18.1875 0.234375 L 16.0625 0.234375 L 12.515625 -10.59375 L 9.390625 0.234375 L 7.3125 0.234375 L 1.265625 -16.328125 L 0.140625 -16.328125 L 0.140625 -16.78125 L 7.9375 -16.78125 L 7.9375 -16.328125 L 6.25 -16.328125 Z M 10.15625 -4.84375 "/></g></g></g><g fill="#ffffff" fill-opacity="1"><g transform="translate(617.134202, 487.953931)"><g/></g></g><g fill="#ffffff" fill-opacity="1"><g transform="translate(627.441758, 487.953931)"><g><path d="M 0.5 -16.78125 L 12.96875 -16.78125 L 13.203125 -12.03125 L 12.78125 -12.03125 C 12.101562 -13.644531 11.394531 -14.75 10.65625 -15.34375 C 9.925781 -15.945312 8.851562 -16.25 7.4375 -16.25 L 6.59375 -16.25 L 6.59375 -8.84375 L 7.40625 -8.84375 C 8.15625 -8.84375 8.785156 -9.125 9.296875 -9.6875 C 9.804688 -10.257812 10.164062 -11.023438 10.375 -11.984375 L 10.734375 -11.984375 L 10.734375 -4.890625 L 10.328125 -4.890625 C 10.046875 -6.085938 9.660156 -6.941406 9.171875 -7.453125 C 8.679688 -7.960938 8.015625 -8.21875 7.171875 -8.21875 L 6.59375 -8.21875 L 6.59375 -0.53125 L 7.5 -0.53125 C 8.96875 -0.53125 10.21875 -0.96875 11.25 -1.84375 C 12.28125 -2.71875 12.988281 -3.84375 13.375 -5.21875 L 13.859375 -5.21875 L 13.65625 0 L 0.5 0 L 0.5 -0.53125 L 1.921875 -0.53125 L 1.921875 -16.25 L 0.5 -16.25 Z M 0.5 -16.78125 "/></g></g></g><g fill="#ffffff" fill-opacity="1"><g transform="translate(648.389709, 487.953931)"><g><path d="M 7.859375 -8.484375 L 6.59375 -8.484375 L 6.59375 -0.453125 L 8.15625 -0.453125 L 8.15625 0 L 0.359375 0 L 0.359375 -0.453125 L 1.921875 -0.453125 L 1.921875 -16.328125 L 0.359375 -16.328125 L 0.359375 -16.78125 L 7.59375 -16.78125 C 9.675781 -16.78125 11.148438 -16.671875 12.015625 -16.453125 C 12.890625 -16.234375 13.503906 -15.972656 13.859375 -15.671875 C 14.617188 -15.046875 15 -14.054688 15 -12.703125 C 15 -11.347656 14.660156 -10.378906 13.984375 -9.796875 C 13.316406 -9.210938 12.300781 -8.863281 10.9375 -8.75 L 10.9375 -8.671875 C 12.226562 -8.492188 13.128906 -8.109375 13.640625 -7.515625 C 14.148438 -6.929688 14.40625 -5.941406 14.40625 -4.546875 L 14.40625 -3.28125 C 14.40625 -2.445312 14.445312 -1.882812 14.53125 -1.59375 C 14.625 -1.3125 14.8125 -1.171875 15.09375 -1.171875 C 15.382812 -1.171875 15.613281 -1.300781 15.78125 -1.5625 C 15.945312 -1.832031 16.101562 -2.390625 16.25 -3.234375 L 16.65625 -3.1875 C 16.476562 -1.832031 16.171875 -0.921875 15.734375 -0.453125 C 15.296875 0.00390625 14.421875 0.234375 13.109375 0.234375 C 11.796875 0.234375 10.863281 -0.0703125 10.3125 -0.6875 C 9.757812 -1.300781 9.484375 -2.453125 9.484375 -4.140625 L 9.484375 -5.890625 C 9.484375 -6.785156 9.367188 -7.441406 9.140625 -7.859375 C 8.910156 -8.273438 8.484375 -8.484375 7.859375 -8.484375 Z M 6.59375 -16.328125 L 6.59375 -8.9375 L 7.359375 -8.9375 C 8.265625 -8.9375 8.9375 -9.21875 9.375 -9.78125 C 9.820312 -10.34375 10.046875 -11.253906 10.046875 -12.515625 L 10.046875 -13.203125 C 10.046875 -14.460938 9.832031 -15.296875 9.40625 -15.703125 C 8.976562 -16.117188 8.300781 -16.328125 7.375 -16.328125 Z M 6.59375 -16.328125 "/></g></g></g><g fill="#ffffff" fill-opacity="1"><g transform="translate(671.542433, 487.953931)"><g><path d="M 10.359375 -0.453125 L 8.609375 -5.625 L 3.859375 -5.625 L 2.015625 -0.453125 L 3.8125 -0.453125 L 3.8125 0 L 0.140625 0 L 0.140625 -0.453125 L 1.265625 -0.453125 L 7.375 -16.921875 L 9.34375 -16.921875 L 15.390625 -0.453125 L 16.484375 -0.453125 L 16.484375 0 L 8.65625 0 L 8.65625 -0.453125 Z M 6.328125 -12.4375 L 4.078125 -6.15625 L 8.40625 -6.15625 Z M 6.328125 -12.4375 "/></g></g></g></svg>